<svg width="42" height="42" viewBox="0 0 42 42" fill="none" xmlns="http://www.w3.org/2000/svg">
<g clip-path="url(#clip0_60_245)">
<path d="M21 0C26.5695 0 31.911 2.21249 35.8492 6.15076C39.7875 10.089 42 15.4305 42 21C42 26.5695 39.7875 31.911 35.8492 35.8492C31.911 39.7875 26.5695 42 21 42C15.4305 42 10.089 39.7875 6.15076 35.8492C2.21249 31.911 0 26.5695 0 21C0 15.4305 2.21249 10.089 6.15076 6.15076C10.089 2.21249 15.4305 0 21 0ZM19.0312 9.84375V21C19.0312 21.6562 19.3594 22.2715 19.909 22.6406L27.784 27.8906C28.6863 28.4977 29.9086 28.2516 30.5156 27.341C31.1227 26.4305 30.8766 25.2164 29.966 24.6094L22.9688 19.95V9.84375C22.9688 8.75273 22.091 7.875 21 7.875C19.909 7.875 19.0312 8.75273 19.0312 9.84375Z" fill="#FF7050"/>
</g>
<defs>
<clipPath id="clip0_60_245">
<rect width="42" height="42" fill="white"/>
</clipPath>
</defs>
</svg>
